# xmcd CD database file
#
# Track frame offsets:
#	150
#	24415
#	51712
#	84186
#	116234
#	144677
#	166952
#	198376
#	218217
#	237846
#	263160
#	287344
#
# Disc length: 4293 seconds
#
# Revision: 0
# Processed by: cddbd v1.5PL3 Copyright (c) Steve Scherf et al.
# Submitted via: CDex 1.50
#
DISCID=ad10c30c
DTITLE=John Coltrane - Train Full Of Soul
DYEAR=1900
DGENRE=Jazz
TTITLE0=Soultrane
TTITLE1=Train's Slo Blues
TTITLE2=Locomotion
TTITLE3=Lazy Bird
TTITLE4=Our Delight
TTITLE5=Theme For Ernie
TTITLE6=Mr. P.C.
TTITLE7=Little Old Lady
TTITLE8=Naima
TTITLE9=Some Other Blues
TTITLE10=Village Blues
TTITLE11=Aisha
EXTD=
EXTT0=
EXTT1=
EXTT2=
EXTT3=
EXTT4=
EXTT5=
EXTT6=
EXTT7=
EXTT8=
EXTT9=
EXTT10=
EXTT11=
PLAYORDER=
